<?xml version="1.0" standalone="no"?>
<!DOCTYPE svg PUBLIC "-//W3C//DTD SVG 20010904//EN"
 "http://www.w3.org/TR/2001/REC-SVG-20010904/DTD/svg10.dtd">
<svg version="1.0" xmlns="http://www.w3.org/2000/svg"
 width="100.000000pt" height="100.000000pt" viewBox="0 0 512.000000 512.000000"
 preserveAspectRatio="xMidYMid meet">

<g transform="translate(0.000000,512.000000) scale(0.100000,-0.100000)"
fill="#000000" stroke="none">
<path d="M2018 4835 c-214 -26 -248 -41 -248 -105 0 -72 36 -81 195 -54 201
34 501 29 724 -12 653 -121 1220 -551 1520 -1155 296 -595 296 -1303 0 -1898
-479 -962 -1581 -1419 -2602 -1078 -319 107 -582 271 -828 516 -135 136 -238
266 -325 413 -367 619 -402 1373 -93 2023 218 460 626 850 1094 1046 97 40
125 63 125 101 0 33 -39 78 -68 78 -52 0 -330 -137 -483 -239 -148 -98 -247
-181 -380 -317 -346 -355 -558 -792 -631 -1299 -19 -136 -16 -484 5 -625 65
-414 234 -798 490 -1115 92 -114 285 -299 403 -387 340 -252 738 -407 1153
-448 136 -13 848 -13 987 1 440 42 897 233 1232 512 112 94 285 276 374 394
226 301 375 657 434 1043 25 160 25 500 0 660 -60 387 -204 735 -434 1044 -88
118 -273 311 -387 403 -340 274 -751 448 -1182 498 -166 19 -914 19 -1075 0z
m1440 -229 c96 -29 256 -92 327 -129 l50 -26 -121 -1 -122 0 -96 60 c-52 33
-137 81 -187 105 -51 25 -94 47 -96 49 -8 7 158 -32 245 -58z m697 -366 c41
-33 106 -90 143 -125 l67 -64 -162 -1 -162 0 -125 125 -125 125 144 0 144 0
76 -60z m437 -469 c43 -63 78 -118 78 -123 0 -4 -80 -8 -177 -8 l-178 0 -29
53 c-16 28 -51 85 -78 125 l-49 72 178 -2 177 -3 78 -114z m191 -339 c15 -33
38 -89 52 -125 l25 -67 -189 0 -189 0 -25 73 c-13 39 -34 96 -46 125 l-21 52
184 0 183 0 26 -58z m138 -425 c10 -43 20 -98 24 -123 l6 -44 -190 0 c-190 0
-191 0 -195 23 -2 12 -13 68 -23 125 l-19 102 191 -2 190 -3 16 -78z m44 -447
l0 -125 -192 -3 -193 -2 0 130 0 130 193 -2 192 -3 0 -125z m-20 -324 c-4 -25
-14 -80 -24 -123 l-16 -78 -190 -3 -191 -2 19 102 c10 57 21 113 23 126 4 22
5 22 195 22 l190 0 -6 -44z m-110 -423 c-14 -36 -37 -92 -52 -125 l-26 -58
-183 0 -184 0 21 53 c12 28 33 85 46 125 l25 72 189 0 189 0 -25 -67z m-165
-341 c0 -5 -35 -60 -78 -123 l-78 -114 -177 -3 -178 -2 49 72 c27 40 62 97 78
125 l29 53 178 0 c97 0 177 -4 177 -8z m-372 -467 c-37 -35 -102 -92 -143
-125 l-76 -60 -144 0 -144 0 122 124 122 124 165 1 165 0 -67 -64z m-481 -346
c-38 -22 -215 -97 -287 -122 -82 -28 -266 -77 -290 -77 -8 0 35 26 95 58 61
32 142 79 180 104 l70 46 125 1 c92 0 120 -2 107 -10z"/>
<path d="M2075 4423 c-776 -99 -1414 -658 -1599 -1401 -44 -178 -51 -238 -51
-462 0 -230 7 -291 55 -475 182 -694 745 -1223 1456 -1366 139 -28 429 -37
583 -19 282 33 562 137 809 299 97 64 119 92 102 135 -10 27 -46 56 -70 56 -8
0 -60 -29 -115 -65 -279 -183 -563 -272 -897 -282 -192 -6 -309 5 -473 47
-496 125 -906 457 -1131 915 -285 583 -219 1271 172 1791 252 335 615 563
1044 656 91 19 135 22 325 23 249 0 356 -16 554 -81 506 -169 921 -585 1087
-1091 67 -206 78 -282 78 -543 0 -206 -2 -248 -22 -338 -63 -287 -175 -525
-352 -746 -91 -114 -101 -148 -54 -185 47 -37 78 -24 150 62 365 437 512 1010
404 1571 -75 386 -300 779 -593 1034 -289 252 -614 404 -978 457 -98 14 -399
19 -484 8z"/>
<path d="M2220 4001 c-91 -28 -167 -98 -194 -179 -9 -25 -16 -79 -16 -120 0
-68 -2 -74 -22 -80 -13 -3 -59 -24 -103 -46 -100 -50 -233 -178 -283 -273
-119 -225 -115 -479 10 -691 52 -90 170 -201 266 -250 121 -63 207 -82 374
-82 153 0 190 -9 226 -55 27 -34 29 -95 5 -136 -30 -50 -69 -61 -208 -57 -140
3 -155 11 -196 94 -49 101 -174 173 -281 161 -149 -18 -252 -133 -253 -283 0
-63 4 -79 44 -160 36 -72 61 -106 130 -175 75 -75 99 -93 188 -135 l103 -49 0
-71 c0 -87 20 -149 67 -203 101 -119 281 -132 398 -29 69 60 95 122 95 224 l0
81 69 27 c99 39 129 77 106 134 -17 38 -55 51 -99 32 -17 -7 -66 -24 -109 -39
-111 -39 -111 -40 -117 -179 -6 -133 -18 -164 -75 -188 -46 -19 -73 -18 -114
4 -56 30 -71 70 -71 192 -1 70 -5 111 -14 122 -7 9 -52 30 -100 47 -152 50
-259 143 -324 279 -27 57 -33 79 -28 107 14 71 90 125 156 110 45 -10 76 -40
112 -107 34 -63 87 -111 151 -135 50 -18 303 -16 359 3 63 21 122 74 153 139
24 48 27 64 23 127 -4 84 -24 130 -76 184 -64 66 -104 77 -307 84 -161 6 -187
10 -248 33 -160 62 -284 195 -331 357 -24 79 -22 219 3 300 28 89 86 183 149
241 54 49 198 129 234 129 24 0 59 18 75 39 8 10 12 54 13 121 0 122 15 162
71 192 41 22 68 23 114 4 57 -24 69 -55 75 -188 6 -140 10 -145 115 -176 216
-64 407 -310 332 -426 -26 -40 -64 -59 -113 -59 -57 0 -89 23 -130 94 -72 121
-135 149 -339 149 -138 0 -143 -1 -204 -31 -161 -81 -201 -286 -80 -422 68
-78 106 -90 314 -98 99 -4 198 -12 220 -19 128 -38 265 -154 323 -272 68 -139
78 -290 26 -424 -34 -90 -38 -117 -24 -143 29 -55 107 -45 139 18 94 183 92
415 -5 611 -39 79 -62 110 -133 180 -69 69 -103 94 -171 127 -121 58 -190 73
-356 74 -160 0 -199 10 -231 58 -29 43 -29 89 0 132 35 51 58 59 190 59 141 0
163 -9 206 -85 61 -108 144 -160 256 -159 84 1 128 18 189 74 96 89 118 216
60 340 -77 162 -219 293 -386 355 l-48 18 0 81 c0 101 -26 164 -94 223 -72 63
-174 89 -256 64z"/>
</g>
</svg>
